<?xml version="1.0" encoding="utf-8"?>
<!-- Generator: Adobe Illustrator 21.0.0, SVG Export Plug-In . SVG Version: 6.00 Build 0)  -->
<svg version="1.1" id="Layer_1" xmlns="http://www.w3.org/2000/svg" xmlns:xlink="http://www.w3.org/1999/xlink" x="0px" y="0px"
	 viewBox="0 0 268.7 284.6" style="enable-background:new 0 0 268.7 284.6;" xml:space="preserve">
<style type="text/css">
	.st0{fill:#F3E953;stroke:#F3E953;stroke-width:0.6016;stroke-miterlimit:10;}
	.st1{fill:#F3E953;stroke:#F3E953;stroke-width:0.5009;stroke-miterlimit:10;}
	.st2{fill:#F3E953;stroke:#F3E953;stroke-width:0.8773;stroke-miterlimit:10;}
	.st3{fill:#F3E953;}
</style>
<rect x="102.7" y="225.6" transform="matrix(0.3056 -0.9522 0.9522 0.3056 -168.5397 280.1516)" class="st0" width="10.1" height="60"/>
<rect x="97.2" y="252.3" transform="matrix(0.3056 -0.9522 0.9522 0.3056 -189.0665 287.0535)" class="st1" width="10.1" height="41.6"/>
<rect x="148.3" y="83.7" transform="matrix(0.3056 -0.9522 0.9522 0.3056 -1.7713 224.9814)" class="st0" width="10.1" height="60"/>
<rect x="154.1" y="75.2" transform="matrix(0.3056 -0.9522 0.9522 0.3056 19.0376 218.1869)" class="st1" width="10.1" height="41.6"/>
<rect x="66.7" y="179.6" transform="matrix(0.3056 -0.9522 0.9522 0.3056 -85.207 252.4721)" class="st2" width="127.6" height="10.1"/>
<g>
	<polygon class="st3" points="70.8,219.4 0,177.4 78.8,141.7 84.4,149 19.7,178.4 77.5,212.7 	"/>
</g>
<g>
	<polygon class="st3" points="197.9,219.4 268.7,177.4 189.8,141.7 184.2,149 249,178.4 191.2,212.7 	"/>
</g>
<rect x="72.7" y="21.3" transform="matrix(0.7907 -0.6122 0.6122 0.7907 -9.5182 56.4002)" class="st1" width="10.1" height="41.6"/>
<rect x="179.4" y="37.1" transform="matrix(0.6122 -0.7907 0.7907 0.6122 44.3255 174.6221)" class="st1" width="41.6" height="10.1"/>
<rect x="129.3" y="0.4" transform="matrix(0.9996 -2.734482e-02 2.734482e-02 0.9996 -0.5292 3.6817)" class="st1" width="10.1" height="41.6"/>
</svg>
