<?xml version="1.0" encoding="utf-8"?>
<!-- Generator: Adobe Illustrator 21.0.0, SVG Export Plug-In . SVG Version: 6.00 Build 0)  -->
<svg version="1.1" id="Layer_1" xmlns="http://www.w3.org/2000/svg" xmlns:xlink="http://www.w3.org/1999/xlink" x="0px" y="0px"
	 viewBox="0 0 268.7 200.1" style="enable-background:new 0 0 268.7 200.1;" xml:space="preserve">
<style type="text/css">
	.st0{fill:#F3E953;stroke:#F3E953;stroke-width:0.6016;stroke-miterlimit:10;}
	.st1{fill:#F3E953;stroke:#F3E953;stroke-width:0.5009;stroke-miterlimit:10;}
	.st2{fill:#F3E953;stroke:#F3E953;stroke-width:0.8773;stroke-miterlimit:10;}
	.st3{fill:#F3E953;}
</style>
<rect x="102.8" y="141.1" transform="matrix(0.3056 -0.9522 0.9522 0.3056 -88.081 221.4886)" class="st0" width="10.1" height="60"/>
<rect x="97.2" y="167.8" transform="matrix(0.3056 -0.9522 0.9522 0.3056 -108.5647 228.3322)" class="st1" width="10.1" height="41.6"/>
<rect x="148.3" y="-0.9" transform="matrix(0.3056 -0.9522 0.9522 0.3056 78.7866 166.289)" class="st0" width="10.1" height="60"/>
<rect x="154" y="-9.3" transform="matrix(0.3056 -0.9522 0.9522 0.3056 99.5496 159.4315)" class="st1" width="10.1" height="41.6"/>
<rect x="66.7" y="95" transform="matrix(0.3056 -0.9522 0.9522 0.3056 -4.6595 193.797)" class="st2" width="127.6" height="10.1"/>
<g>
	<polygon class="st3" points="70.8,134.9 0,92.9 78.8,57.2 84.4,64.5 19.7,93.9 77.5,128.2 	"/>
</g>
<g>
	<polygon class="st3" points="197.9,134.9 268.7,92.9 189.8,57.2 184.2,64.5 249,93.9 191.2,128.2 	"/>
</g>
</svg>
