<?xml version="1.0" encoding="utf-8"?>
<!-- Generator: Adobe Illustrator 21.0.0, SVG Export Plug-In . SVG Version: 6.00 Build 0)  -->
<svg version="1.1" id="Layer_1" xmlns="http://www.w3.org/2000/svg" xmlns:xlink="http://www.w3.org/1999/xlink" x="0px" y="0px"
	 viewBox="0 0 268.7 200.1" style="enable-background:new 0 0 268.7 200.1;" xml:space="preserve">
<style type="text/css">
	.st0{stroke:#000000;stroke-width:0.6016;stroke-miterlimit:10;}
	.st1{stroke:#000000;stroke-width:0.5009;stroke-miterlimit:10;}
	.st2{stroke:#000000;stroke-width:0.8773;stroke-miterlimit:10;}
	.st3{fill:none;stroke:#000000;stroke-width:8.4826;stroke-miterlimit:10;}
</style>
<rect x="102.8" y="141.1" transform="matrix(0.3056 -0.9522 0.9522 0.3056 -88.0705 221.5384)" class="st0" width="10.1" height="60"/>
<rect x="97.2" y="167.8" transform="matrix(0.3056 -0.9522 0.9522 0.3056 -108.5725 228.3233)" class="st1" width="10.1" height="41.6"/>
<rect x="148.3" y="-0.8" transform="matrix(-0.3056 0.9522 -0.9522 -0.3056 228.0674 -107.9672)" class="st0" width="10.1" height="60"/>
<rect x="154" y="-9.3" transform="matrix(-0.3056 0.9522 -0.9522 -0.3056 218.6355 -136.4675)" class="st1" width="10.1" height="41.6"/>
<rect x="125.5" y="36.3" transform="matrix(0.9522 0.3056 -0.3056 0.9522 36.8164 -35.1183)" class="st2" width="10.1" height="127.6"/>
<g>
	<polygon points="-102.1,730.6 -165.3,690 -94.9,655.5 -90.6,661.6 -150.2,690.8 -96.9,725 	"/>
</g>
<g>
	<polygon points="-56.6,730.6 6.5,690 -63.9,655.5 -68.2,661.6 -8.6,690.8 -61.8,725 	"/>
</g>
<polyline class="st3" points="281.4,734.7 339.6,689.7 274.6,651.4 "/>
<text transform="matrix(1.1034 0 0 1 6.5341 676.9101)" style="font-family:'MyriadPro-Regular'; font-size:100.5867px;">&lt; / &gt;</text>
<g>
	<polygon points="70.8,134.9 0,92.9 78.8,57.2 84.4,64.5 19.7,93.9 77.5,128.2 	"/>
</g>
<g>
	<polygon points="197.9,134.9 268.7,92.9 189.8,57.2 184.2,64.5 249,93.9 191.2,128.2 	"/>
</g>
</svg>
