<?xml version="1.0" encoding="utf-8"?>
<!-- Generator: Adobe Illustrator 21.0.0, SVG Export Plug-In . SVG Version: 6.00 Build 0)  -->
<svg version="1.1" id="Layer_1" xmlns="http://www.w3.org/2000/svg" xmlns:xlink="http://www.w3.org/1999/xlink" x="0px" y="0px"
	 viewBox="0 0 268.7 284.6" style="enable-background:new 0 0 268.7 284.6;" xml:space="preserve">
<style type="text/css">
	.st0{stroke:#000000;stroke-width:0.6016;stroke-miterlimit:10;}
	.st1{stroke:#000000;stroke-width:0.5009;stroke-miterlimit:10;}
	.st2{stroke:#000000;stroke-width:0.8773;stroke-miterlimit:10;}
	.st3{stroke:#000000;stroke-miterlimit:10;}
</style>
<rect x="102.7" y="225.6" transform="matrix(0.3056 -0.9522 0.9522 0.3056 -168.5397 280.1516)" class="st0" width="10.1" height="60"/>
<rect x="97.2" y="252.3" transform="matrix(0.3056 -0.9522 0.9522 0.3056 -189.0665 287.0535)" class="st1" width="10.1" height="41.6"/>
<rect x="148.3" y="83.7" transform="matrix(0.3056 -0.9522 0.9522 0.3056 -1.7713 224.9814)" class="st0" width="10.1" height="60"/>
<rect x="154.1" y="75.2" transform="matrix(0.3056 -0.9522 0.9522 0.3056 19.0376 218.1869)" class="st1" width="10.1" height="41.6"/>
<rect x="66.7" y="179.6" transform="matrix(0.3056 -0.9522 0.9522 0.3056 -85.207 252.4721)" class="st2" width="127.6" height="10.1"/>
<g>
	<polygon class="st3" points="70.8,219.4 0,177.4 78.8,141.7 84.4,149 19.7,178.4 77.5,212.7 	"/>
</g>
<g>
	<polygon class="st3" points="197.9,219.4 268.7,177.4 189.8,141.7 184.2,149 249,178.4 191.2,212.7 	"/>
</g>
</svg>
